<svg data-slug-id="azure-iot-edge" viewBox="0 0 48 48" xmlns="http://www.w3.org/2000/svg">
<path d="M47 23.9058C46.8985 21.527 45.964 19.2596 44.3599 17.5002C42.7558 15.7407 40.5843 14.6012 38.225 14.2808C38.1011 10.9164 36.6516 7.73755 34.1927 5.4379C31.7338 3.13826 28.4651 1.90448 25.1 2.00578C22.3898 1.95573 19.7311 2.74925 17.4916 4.27654C15.2522 5.80383 13.5428 7.98938 12.6 10.5308C9.7376 10.8764 7.09401 12.2369 5.1491 14.3653C3.20419 16.4937 2.08688 19.2489 2 22.1308C2.12372 25.3715 3.52749 28.431 5.90352 30.6383C8.27955 32.8456 11.4339 34.0207 14.675 33.9058H15.775H36.3C36.4824 33.9318 36.6676 33.9318 36.85 33.9058C39.5103 33.8869 42.0585 32.8319 43.9536 30.9648C45.8487 29.0977 46.9415 26.5655 47 23.9058V23.9058Z" fill="url(#azure-iot-edge_paint0_linear)"/>
<path d="M25.4002 22.9307H23.4502V38.4057H25.4002V22.9307Z" fill="#B3B3B3"/>
<path d="M24.4236 23.4557C27.2955 23.4557 29.6236 21.1275 29.6236 18.2557C29.6236 15.3838 27.2955 13.0557 24.4236 13.0557C21.5518 13.0557 19.2236 15.3838 19.2236 18.2557C19.2236 21.1275 21.5518 23.4557 24.4236 23.4557Z" fill="#F2F2F2"/>
<defs>
<linearGradient id="azure-iot-edge_paint0_linear" x1="24.5" y1="33.9058" x2="24.5" y2="2.00578" gradientUnits="userSpaceOnUse">
<stop stop-color="#198AB3"/>
<stop offset="0.44" stop-color="#28B7DB"/>
<stop offset="0.78" stop-color="#32D4F5"/>
</linearGradient>
</defs>
</svg>
