<svg data-slug-id="azure-digital-twins" viewBox="0 0 48 48" xmlns="http://www.w3.org/2000/svg">
<g clip-path="url(#azure-digital-twins_clip0)">
<path d="M38.4747 8.93324L24.6214 0.93324C23.5583 0.320086 22.3526 -0.00268555 21.1254 -0.00268555C19.8981 -0.00268555 18.6925 0.320086 17.6294 0.93324L3.77603 8.93324C2.71355 9.5476 1.83126 10.4305 1.21766 11.4934C0.604061 12.5564 0.280707 13.7619 0.280029 14.9892V30.9892C0.28024 32.217 0.603371 33.4231 1.217 34.4866C1.83062 35.55 2.71315 36.4333 3.77603 37.0479L17.6427 45.0479C18.7058 45.6611 19.9115 45.9838 21.1387 45.9838C22.3659 45.9838 23.5716 45.6611 24.6347 45.0479L38.5014 37.0479C39.5642 36.4333 40.4468 35.55 41.0604 34.4866C41.674 33.4231 41.9971 32.217 41.9974 30.9892V14.9892C41.994 13.7593 41.6666 12.552 41.0482 11.4888C40.4298 10.4257 39.5421 9.54422 38.4747 8.93324V8.93324Z" fill="url(#azure-digital-twins_paint0_linear)"/>
<path d="M44.9119 20.6479L35.1706 15.0239C34.3163 14.5313 33.3474 14.272 32.3613 14.272C31.3751 14.272 30.4062 14.5313 29.5519 15.0239L19.8133 20.6479C18.9584 21.1396 18.2485 21.8483 17.7554 22.7024C17.2623 23.5565 17.0036 24.5257 17.0053 25.5119V36.7599C17.0052 37.7458 17.2646 38.7143 17.7576 39.5681C18.2505 40.422 18.9595 41.131 19.8133 41.6239L29.5519 47.2479C30.4062 47.7405 31.3751 47.9998 32.3613 47.9998C33.3474 47.9998 34.3163 47.7405 35.1706 47.2479L44.9119 41.6239C45.7678 41.1322 46.4792 40.4239 46.9745 39.57C47.4697 38.7162 47.7314 37.747 47.7333 36.7599V25.5119C47.7317 24.5248 47.4701 23.5555 46.9748 22.7016C46.4795 21.8477 45.768 21.1394 44.9119 20.6479V20.6479Z" fill="url(#azure-digital-twins_paint1_linear)"/>
<path d="M20.2079 7.90137L23.0133 6.34937L35.0399 31.2747L34.0639 32.3414H7.55994L7.8586 29.1494H30.2079L20.2079 7.90137Z" fill="url(#azure-digital-twins_paint2_linear)"/>
<path d="M7.2854 34.8933C9.49454 34.8933 11.2854 33.1025 11.2854 30.8933C11.2854 28.6842 9.49454 26.8933 7.2854 26.8933C5.07626 26.8933 3.2854 28.6842 3.2854 30.8933C3.2854 33.1025 5.07626 34.8933 7.2854 34.8933Z" fill="white"/>
<path d="M32.3626 37.3866C35.8148 37.3866 38.6133 34.5881 38.6133 31.1359C38.6133 27.6838 35.8148 24.8853 32.3626 24.8853C28.9105 24.8853 26.1119 27.6838 26.1119 31.1359C26.1119 34.5881 28.9105 37.3866 32.3626 37.3866Z" fill="white"/>
<path d="M21.4426 10.8213C23.6518 10.8213 25.4426 9.03043 25.4426 6.82129C25.4426 4.61215 23.6518 2.82129 21.4426 2.82129C19.2335 2.82129 17.4426 4.61215 17.4426 6.82129C17.4426 9.03043 19.2335 10.8213 21.4426 10.8213Z" fill="white"/>
</g>
<defs>
<linearGradient id="azure-digital-twins_paint0_linear" x1="24.696" y1="-0.970759" x2="16.5814" y2="53.4719" gradientUnits="userSpaceOnUse">
<stop stop-color="#32BEDD"/>
<stop offset="1" stop-color="#198AB3"/>
</linearGradient>
<linearGradient id="azure-digital-twins_paint1_linear" x1="28.7946" y1="19.7012" x2="38.5093" y2="50.8426" gradientUnits="userSpaceOnUse">
<stop stop-color="#50E6FF"/>
<stop offset="0.997" stop-color="#32BEDD"/>
</linearGradient>
<linearGradient id="azure-digital-twins_paint2_linear" x1="-0.448063" y1="10.9707" x2="33.5253" y2="29.0534" gradientUnits="userSpaceOnUse">
<stop stop-color="white"/>
<stop offset="1" stop-color="#9CEBFF"/>
</linearGradient>
<clipPath id="azure-digital-twins_clip0">
<rect width="48" height="48" fill="white"/>
</clipPath>
</defs>
</svg>
